<svg xmlns="http://www.w3.org/2000/svg" version="1.1" xmlns:xlink="http://www.w3.org/1999/xlink" xmlns:svgjs="http://svgjs.dev/svgjs" width="1920" height="1080" preserveAspectRatio="none" viewBox="0 0 1920 1080"><g mask="url(&quot;#SvgjsMask1158&quot;)" fill="none"><path d="M -884.6081814788703,816 C -756.61,703 -500.61,286 -244.60818147887025,251 C 11.39,216 139.39,601 395.3918185211297,641 C 651.39,681 779.39,450.8 1035.3918185211298,451 C 1291.39,451.2 1498.47,706.2 1675.3918185211298,642 C 1852.31,577.8 1871.08,232.4 1920,130" stroke="rgba(0, 187, 240, 1)" stroke-width="2"></path><path d="M -895.4644706540722,914 C -767.46,800.8 -511.46,369.6 -255.46447065407222,348 C 0.54,326.4 128.54,796.4 384.5355293459278,806 C 640.54,815.6 768.54,380.8 1024.535529345928,396 C 1280.54,411.2 1485.44,896.8 1664.535529345928,882 C 1843.63,867.2 1868.91,434 1920,322" stroke="rgba(0, 187, 240, 1)" stroke-width="2"></path><path d="M -402.06791805076716,633 C -274.07,561.6 -18.07,258.4 237.9320819492328,276 C 493.93,293.6 621.93,747.6 877.9320819492328,721 C 1133.93,694.4 1261.93,151.6 1517.9320819492327,143 C 1773.93,134.4 2077.52,680.4 2157.9320819492327,678 C 2238.35,675.6 1967.59,240.4 1920,131" stroke="rgba(0, 187, 240, 1)" stroke-width="2"></path><path d="M -502.6779057138684,193 C -374.68,345.4 -118.68,899.8 137.3220942861316,955 C 393.32,1010.2 521.32,468.6 777.3220942861316,469 C 1033.32,469.4 1161.32,948 1417.3220942861317,957 C 1673.32,966 1956.79,569 2057.3220942861317,514 C 2157.86,459 1947.46,648.4 1920,682" stroke="rgba(0, 187, 240, 1)" stroke-width="2"></path><path d="M -908.0432636764594,119 C -780.04,231 -524.04,630.2 -268.04326367645945,679 C -12.04,727.8 115.96,370.4 371.95673632354055,363 C 627.96,355.6 755.96,664.4 1011.9567363235406,642 C 1267.96,619.6 1470.35,247.2 1651.9567363235406,251 C 1833.57,254.8 1866.39,579 1920,661" stroke="rgba(0, 187, 240, 1)" stroke-width="2"></path><path d="M -741.5346085530736,893 C -613.53,805.8 -357.53,479.6 -101.53460855307358,457 C 154.47,434.4 282.47,792 538.4653914469264,780 C 794.47,768 922.47,433.4 1178.4653914469263,397 C 1434.47,360.6 1670.16,622.8 1818.4653914469263,598 C 1966.77,573.2 1899.69,338 1920,273" stroke="rgba(0, 187, 240, 1)" stroke-width="2"></path><path d="M -590.3996016197005,468 C -462.4,547 -206.4,855 49.600398380299424,863 C 305.6,871 433.6,531.2 689.6003983802995,508 C 945.6,484.8 1073.6,786.8 1329.6003983802993,747 C 1585.6,707.2 1851.52,283.4 1969.6003983802993,309 C 2087.68,334.6 1929.92,761.8 1920,875" stroke="rgba(0, 187, 240, 1)" stroke-width="2"></path><path d="M -236.73257356424585,567 C -108.73,485.8 147.27,160.6 403.26742643575415,161 C 659.27,161.4 787.27,506 1043.2674264357543,569 C 1299.27,632 1427.27,478.2 1683.2674264357543,476 C 1939.27,473.8 2275.92,567.4 2323.2674264357543,558 C 2370.61,548.6 2000.65,454.8 1920,429" stroke="rgba(0, 187, 240, 1)" stroke-width="2"></path></g><defs><mask id="SvgjsMask1158"><rect width="1920" height="1080" fill="#ffffff"></rect></mask></defs></svg>