<?xml version="1.0" standalone="no"?><svg xmlns="http://www.w3.org/2000/svg" viewBox="0 0 1440 320"><path fill="#00bbf0" fill-opacity="1" d="M0,128L40,122.7C80,117,160,107,240,133.3C320,160,400,224,480,245.3C560,267,640,245,720,208C800,171,880,117,960,117.3C1040,117,1120,171,1200,186.7C1280,203,1360,181,1400,170.7L1440,160L1440,320L1400,320C1360,320,1280,320,1200,320C1120,320,1040,320,960,320C880,320,800,320,720,320C640,320,560,320,480,320C400,320,320,320,240,320C160,320,80,320,40,320L0,320Z"></path></svg>